<?xml version="1.0" encoding="UTF-8" standalone="no"?>
<svg
   data-v-423bf9ae=""
   viewBox="0 0 1024 1024"
   class="iconLeft"
   version="1.1"
   id="svg6"
   sodipodi:docname="adaptive-icon.svg"
   width="1024"
   height="1024"
   inkscape:version="1.3.2 (091e20e, 2023-11-25, custom)"
   inkscape:export-filename="adaptive-icon.png"
   inkscape:export-xdpi="96"
   inkscape:export-ydpi="96"
   xml:space="preserve"
   xmlns:inkscape="http://www.inkscape.org/namespaces/inkscape"
   xmlns:sodipodi="http://sodipodi.sourceforge.net/DTD/sodipodi-0.dtd"
   xmlns="http://www.w3.org/2000/svg"
   xmlns:svg="http://www.w3.org/2000/svg"><defs
     id="defs6" /><sodipodi:namedview
     id="namedview6"
     pagecolor="#ffffff"
     bordercolor="#000000"
     borderopacity="0.25"
     inkscape:showpageshadow="2"
     inkscape:pageopacity="0.0"
     inkscape:pagecheckerboard="0"
     inkscape:deskcolor="#d1d1d1"
     inkscape:zoom="0.41940299"
     inkscape:cx="59.60854"
     inkscape:cy="466.13878"
     inkscape:window-width="1920"
     inkscape:window-height="1057"
     inkscape:window-x="-8"
     inkscape:window-y="-8"
     inkscape:window-maximized="1"
     inkscape:current-layer="svg6" /><!----><!----><!----><!----><g
     data-v-423bf9ae=""
     id="a4e88acd-e025-4dcb-b694-924ae98948c0"
     transform="matrix(10.175091,0,0,10.175091,267.95191,267.79782)"
     stroke="none"
     fill="black"
     style="fill:#7e4ee5;fill-opacity:1"><path
       d="m 9.459,9.119 h -6.75 a 0.99,0.99 0 1 1 0,-1.979 h 6.75 a 0.99,0.99 0 1 1 0,1.979 z m 0,7.935 h -6.75 a 0.99,0.99 0 1 1 0,-1.98 h 6.75 a 0.99,0.99 0 0 1 0,1.98 z m 0,7.936 h -6.75 a 0.99,0.99 0 0 1 0,-1.98 h 6.75 a 0.99,0.99 0 1 1 0,1.98 z m 0,7.935 h -6.75 a 0.99,0.99 0 1 1 0,-1.979 h 6.75 a 0.99,0.99 0 1 1 0,1.979 z m 0,7.935 h -6.75 a 0.99,0.99 0 1 1 0,-1.979 h 6.75 a 0.99,0.99 0 0 1 0,1.979 z"
       id="path2"
       style="fill:#7e4ee5;fill-opacity:1" /><path
       d="m 34.594,36.483 -8.62,6.194 a 0.998,0.998 0 0 1 -0.578,0.187 0.992,0.992 0 0 1 -0.964,-1.216 L 26.855,31.32 a 0.959,0.959 0 0 1 0.14,-0.323 L 39.182,12.726 V 4.229 C 39.181,1.896 37.463,0 35.353,0 H 8.609 C 6.497,0 4.78,1.896 4.78,4.229 V 43.771 C 4.78,46.102 6.497,48 8.609,48 h 26.744 c 2.11,0 3.828,-1.898 3.828,-4.229 V 30.703 a 0.986,0.986 0 0 0 -0.238,-0.626 l -4.104,6.152 a 0.987,0.987 0 0 1 -0.245,0.254 z M 17.506,9.116 h 12.437 a 1.484,1.484 0 0 1 0,2.968 H 17.506 a 1.485,1.485 0 1 1 0,-2.968 z m 0,8.178 h 12.437 a 1.4845,1.4845 0 0 1 0,2.969 H 17.506 a 1.485,1.485 0 0 1 0,-2.969 z m -1.485,9.663 c 0,-0.82 0.665,-1.484 1.485,-1.484 h 7.89 a 1.4845,1.4845 0 0 1 0,2.969 h -7.89 c -0.82,0 -1.485,-0.665 -1.485,-1.485 z"
       id="path3"
       style="fill:#7e4ee5;fill-opacity:1" /><g
       id="g6"
       style="fill:#7e4ee5;fill-opacity:1"><path
         d="m 26.141,41.688 a 0.82,0.82 0 0 1 -0.798,-1.007 l 2.005,-8.552 a 0.837,0.837 0 0 1 0.116,-0.267 L 39.648,13.595 a 0.819,0.819 0 0 1 1.137,-0.227 l 5.131,3.421 a 0.82,0.82 0 0 1 0.229,1.137 L 33.96,36.195 a 0.867,0.867 0 0 1 -0.203,0.211 l -7.138,5.128 a 0.813,0.813 0 0 1 -0.478,0.154 z m 2.769,-9.039 -1.473,6.279 5.24,-3.767 L 44.324,17.7 40.556,15.187 Z"
         id="path4"
         style="fill:#7e4ee5;fill-opacity:1" /><path
         d="m 31.269,34.012 a 0.82,0.82 0 0 1 -0.68,-1.274 L 39.74,19.014 a 0.82026292,0.82026292 0 0 1 1.365,0.91 l -9.152,13.723 a 0.82,0.82 0 0 1 -0.684,0.365 z"
         id="path5"
         style="fill:#7e4ee5;fill-opacity:1" /><path
         d="m 43.102,21.541 a 0.818,0.818 0 0 1 -0.454,-0.137 l -4.865,-3.245 a 0.81956955,0.81956955 0 1 1 0.909,-1.364 l 4.865,3.245 a 0.82,0.82 0 0 1 -0.455,1.501 z"
         id="path6"
         style="fill:#7e4ee5;fill-opacity:1" /></g></g><!----></svg>
