<svg data-v-fde0c5aa="" xmlns="http://www.w3.org/2000/svg" viewBox="0 0 300 300" class="iconLeft"><!----><defs data-v-fde0c5aa=""><!----></defs><rect data-v-fde0c5aa="" fill="#437085" x="0" y="0" width="300px" height="300px" class="logo-background-square"></rect><defs data-v-fde0c5aa=""><!----></defs><g data-v-fde0c5aa="" id="14a0f9d3-7614-4306-9748-a6e234edfa24" fill="#ECEBE7" transform="matrix(3.772080898284912,0,0,3.772080898284912,108.02286354791866,118.35224088075827)"><path d="M2.59 13.62Q1.79 13.62 1.10 13.25Q0.41 12.88-0.01 12.22L-0.01 12.22L0.42 11.75Q0.83 12.35 1.38 12.66Q1.93 12.98 2.59 12.98L2.59 12.98Q3.57 12.98 4.05 12.41Q4.54 11.84 4.54 10.67L4.54 10.67L4.54 4.40L0.92 4.40L0.92 3.75L5.25 3.75L5.25 10.67Q5.25 12.14 4.58 12.88Q3.91 13.62 2.59 13.62L2.59 13.62ZM10.82 6.19Q12.18 6.19 12.91 6.88Q13.64 7.57 13.64 8.92L13.64 8.92L13.64 13.55L12.96 13.55L12.96 12.25Q12.61 12.89 11.94 13.25Q11.27 13.61 10.33 13.61L10.33 13.61Q9.11 13.61 8.41 13.03Q7.70 12.46 7.70 11.52L7.70 11.52Q7.70 10.61 8.35 10.04Q9.00 9.48 10.43 9.48L10.43 9.48L12.94 9.48L12.94 8.89Q12.94 7.87 12.38 7.34Q11.83 6.80 10.77 6.80L10.77 6.80Q10.04 6.80 9.37 7.06Q8.71 7.31 8.25 7.73L8.25 7.73L7.90 7.22Q8.44 6.73 9.21 6.46Q9.98 6.19 10.82 6.19L10.82 6.19ZM10.43 13.03Q11.34 13.03 11.98 12.61Q12.61 12.19 12.94 11.40L12.94 11.40L12.94 10.02L10.44 10.02Q9.37 10.02 8.88 10.42Q8.40 10.81 8.40 11.49L8.40 11.49Q8.40 12.21 8.93 12.62Q9.46 13.03 10.43 13.03L10.43 13.03ZM17.19 7.84Q17.53 7.04 18.24 6.61Q18.96 6.19 19.98 6.19L19.98 6.19L19.98 6.87L19.81 6.86Q18.59 6.86 17.91 7.62Q17.22 8.39 17.22 9.74L17.22 9.74L17.22 13.55L16.52 13.55L16.52 6.24L17.19 6.24L17.19 7.84ZM21.91 13.55L21.91 6.24L22.61 6.24L22.61 13.55L21.91 13.55ZM22.26 4.47Q22.02 4.47 21.85 4.30Q21.69 4.14 21.69 3.91L21.69 3.91Q21.69 3.67 21.85 3.50Q22.02 3.33 22.26 3.33L22.26 3.33Q22.50 3.33 22.67 3.49Q22.83 3.65 22.83 3.89L22.83 3.89Q22.83 4.13 22.67 4.30Q22.50 4.47 22.26 4.47L22.26 4.47ZM31.36 3.16L32.06 3.16L32.06 13.55L31.37 13.55L31.37 11.83Q30.94 12.68 30.16 13.15Q29.37 13.61 28.38 13.61L28.38 13.61Q27.36 13.61 26.53 13.13Q25.70 12.66 25.23 11.82Q24.77 10.98 24.77 9.90L24.77 9.90Q24.77 8.82 25.23 7.97Q25.70 7.13 26.53 6.66Q27.36 6.19 28.38 6.19L28.38 6.19Q29.36 6.19 30.13 6.65Q30.91 7.11 31.36 7.94L31.36 7.94L31.36 3.16ZM28.42 12.98Q29.26 12.98 29.92 12.59Q30.59 12.19 30.97 11.49Q31.36 10.79 31.36 9.90L31.36 9.90Q31.36 9.00 30.97 8.30Q30.59 7.60 29.92 7.21Q29.26 6.82 28.42 6.82L28.42 6.82Q27.58 6.82 26.91 7.21Q26.25 7.60 25.86 8.30Q25.48 9.00 25.48 9.90L25.48 9.90Q25.48 10.79 25.86 11.49Q26.25 12.19 26.91 12.59Q27.58 12.98 28.42 12.98L28.42 12.98ZM37.48 6.19Q38.84 6.19 39.56 6.88Q40.29 7.57 40.29 8.92L40.29 8.92L40.29 13.55L39.62 13.55L39.62 12.25Q39.27 12.89 38.60 13.25Q37.93 13.61 36.99 13.61L36.99 13.61Q35.77 13.61 35.06 13.03Q34.36 12.46 34.36 11.52L34.36 11.52Q34.36 10.61 35.01 10.04Q35.66 9.48 37.09 9.48L37.09 9.48L39.59 9.48L39.59 8.89Q39.59 7.87 39.04 7.34Q38.49 6.80 37.42 6.80L37.42 6.80Q36.69 6.80 36.03 7.06Q35.36 7.31 34.90 7.73L34.90 7.73L34.55 7.22Q35.10 6.73 35.87 6.46Q36.64 6.19 37.48 6.19L37.48 6.19ZM37.09 13.03Q38.00 13.03 38.63 12.61Q39.27 12.19 39.59 11.40L39.59 11.40L39.59 10.02L37.10 10.02Q36.02 10.02 35.54 10.42Q35.06 10.81 35.06 11.49L35.06 11.49Q35.06 12.21 35.59 12.62Q36.12 13.03 37.09 13.03L37.09 13.03Z"></path></g><defs data-v-fde0c5aa=""><!----></defs><g data-v-fde0c5aa="" id="67d5c0d2-bd82-4aa6-bcda-2d4b7fad0be9" stroke="none" fill="#ECEBE7" transform="matrix(1.2329989671707153,0,0,1.2329989671707153,37.919264301025464,120.40802525726112)"><path d="M9.459 9.119h-6.75a.99.99 0 110-1.979h6.75a.99.99 0 110 1.979zM9.459 17.054h-6.75a.99.99 0 110-1.98h6.75a.99.99 0 010 1.98zM9.459 24.99h-6.75a.99.99 0 010-1.98h6.75a.99.99 0 110 1.98zM9.459 32.925h-6.75a.99.99 0 110-1.979h6.75a.99.99 0 110 1.979zM9.459 40.86h-6.75a.99.99 0 110-1.979h6.75a.99.99 0 010 1.979z"></path><path d="M34.594 36.483l-8.62 6.194a.998.998 0 01-.578.187.992.992 0 01-.964-1.216l2.423-10.328a.959.959 0 01.14-.323l12.187-18.271V4.229C39.181 1.896 37.463 0 35.353 0H8.609C6.497 0 4.78 1.896 4.78 4.229v39.542C4.78 46.102 6.497 48 8.609 48h26.744c2.11 0 3.828-1.898 3.828-4.229V30.703a.986.986 0 00-.238-.626l-4.104 6.152a.987.987 0 01-.245.254zM17.506 9.116h12.437a1.484 1.484 0 010 2.968H17.506a1.485 1.485 0 110-2.968zm0 8.178h12.437a1.484 1.484 0 010 2.969H17.506a1.485 1.485 0 010-2.969zm-1.485 9.663c0-.82.665-1.484 1.485-1.484h7.89a1.484 1.484 0 010 2.969h-7.89c-.82 0-1.485-.665-1.485-1.485z"></path><g><path d="M26.141 41.688a.82.82 0 01-.798-1.007l2.005-8.552a.837.837 0 01.116-.267l12.184-18.267a.819.819 0 011.137-.227l5.131 3.421a.82.82 0 01.229 1.137L33.96 36.195a.867.867 0 01-.203.211l-7.138 5.128a.813.813 0 01-.478.154zm2.769-9.039l-1.473 6.279 5.24-3.767L44.324 17.7l-3.768-2.513L28.91 32.649z"></path><path d="M31.269 34.012a.82.82 0 01-.68-1.274l9.151-13.724a.82.82 0 011.365.91l-9.152 13.723a.82.82 0 01-.684.365z"></path><path d="M43.102 21.541a.818.818 0 01-.454-.137l-4.865-3.245a.819.819 0 11.909-1.364l4.865 3.245a.82.82 0 01-.455 1.501z"></path></g></g><!----></svg>